<svg class="icon" viewBox="0 0 1024 1024" version="1.1" xmlns="http://www.w3.org/2000/svg" width="200" height="200"><path d="M512 410a102.09 102.09 0 1 0 72.1 29.9A101.29 101.29 0 0 0 512 410z"></path><path d="M942.45 449.55c-12.3-29.7-33.1-72.7-61.9-108.6a411 411 0 0 0-138.2-111.9c-66.3-33.3-143.9-50.1-230.5-50.1s-164.1 16.9-230.4 50.2A413.64 413.64 0 0 0 143.25 341c-28.8 36-49.5 79-61.8 108.7-12 28.8-20.5 56.5-20.8 62.1v0.4c0.3 5.6 8.9 33.3 20.9 62.2 12.4 29.7 33.1 72.7 61.8 108.5a411 411 0 0 0 138.2 111.9c66.7 33.4 144.2 50.3 230.4 50.3s163.8-16.9 230.4-50.3A413.36 413.36 0 0 0 880.55 683c28.8-35.9 49.6-78.9 61.9-108.6 12-28.8 20.6-56.5 20.9-62.1v-0.6c-0.3-5.65-8.9-33.35-20.9-62.15z m-430.6 234.9c-95.6 0-173.3-77.8-173.3-173.3s77.8-173.3 173.3-173.3 173.3 77.8 173.3 173.3-77.7 173.3-173.3 173.3z"></path></svg>